<?xml version="1.0" standalone="no"?>
<!DOCTYPE svg PUBLIC "-//W3C//DTD SVG 20010904//EN"
 "http://www.w3.org/TR/2001/REC-SVG-20010904/DTD/svg10.dtd">
<svg version="1.0" xmlns="http://www.w3.org/2000/svg"
 width="3500.000000pt" height="1876.000000pt" viewBox="0 0 3500.000000 1876.000000"
 preserveAspectRatio="xMidYMid meet">
<metadata>
Created by potrace 1.14, written by Peter Selinger 2001-2017
</metadata>
<g transform="translate(0.000000,1876.000000) scale(0.100000,-0.100000)"
fill="#000000" stroke="none">
<path d="M9695 17784 c-27 -2 -122 -8 -210 -14 -530 -36 -1142 -132 -1525
-240 -36 -10 -101 -28 -145 -40 -44 -12 -100 -28 -125 -35 -25 -8 -56 -16 -70
-19 -14 -2 -59 -15 -100 -30 -41 -14 -84 -27 -95 -28 -11 -2 -24 -6 -30 -10
-5 -3 -25 -9 -42 -13 -18 -3 -33 -11 -33 -15 0 -5 -7 -7 -15 -4 -8 4 -15 2
-15 -3 0 -5 -12 -10 -27 -11 -15 -1 -32 -7 -37 -12 -6 -6 -18 -10 -27 -10 -10
0 -19 -4 -21 -9 -1 -5 -12 -11 -23 -13 -11 -1 -22 -5 -25 -9 -8 -9 -95 -39
-113 -39 -17 0 -25 -3 -84 -34 -18 -9 -35 -17 -38 -17 -2 0 -30 -11 -60 -24
-31 -14 -59 -25 -64 -25 -16 0 -116 -44 -139 -61 -13 -10 -31 -15 -40 -12 -9
3 -14 2 -10 -2 8 -8 -114 -65 -138 -65 -6 0 -21 -9 -34 -20 -13 -12 -30 -18
-37 -16 -7 3 -13 2 -13 -2 0 -4 -40 -27 -90 -51 -49 -24 -90 -47 -90 -53 0 -5
-4 -6 -10 -3 -5 3 -18 1 -27 -4 -10 -6 -14 -11 -9 -11 5 0 -20 -15 -55 -32
-35 -18 -67 -32 -71 -30 -5 1 -8 -2 -8 -7 0 -5 -21 -17 -46 -27 -25 -10 -51
-23 -58 -29 -6 -6 -45 -30 -86 -53 -41 -23 -70 -42 -65 -42 6 0 -16 -12 -47
-27 -32 -14 -58 -29 -58 -34 0 -4 -39 -29 -87 -55 -49 -27 -93 -53 -99 -59
-15 -14 -50 -39 -109 -77 -27 -18 -58 -41 -68 -51 -10 -10 -23 -15 -29 -11 -6
4 -8 3 -5 -3 4 -6 -7 -16 -23 -23 -16 -7 -38 -20 -49 -29 -11 -9 -37 -27 -56
-41 -20 -14 -51 -37 -68 -53 -17 -15 -40 -30 -49 -33 -10 -3 -16 -9 -14 -13 3
-4 -11 -15 -30 -26 -19 -10 -34 -22 -34 -27 0 -5 -4 -6 -10 -3 -5 3 -10 1 -10
-4 0 -6 -17 -21 -37 -35 -21 -13 -49 -35 -63 -48 -14 -14 -36 -31 -48 -37 -13
-7 -21 -15 -18 -18 3 -4 -9 -15 -27 -26 -17 -11 -39 -26 -47 -33 -20 -19 -83
-74 -111 -99 -13 -11 -34 -27 -47 -36 -13 -9 -24 -20 -24 -25 -1 -5 -13 -18
-27 -29 -44 -34 -71 -58 -139 -123 -35 -35 -75 -70 -88 -79 -13 -8 -26 -23
-29 -34 -4 -10 -10 -19 -14 -19 -9 0 -154 -143 -201 -199 -19 -23 -43 -44 -52
-47 -10 -3 -18 -10 -18 -16 0 -5 -9 -20 -20 -32 -51 -54 -90 -102 -90 -109 0
-5 -4 -6 -9 -3 -5 4 -19 -10 -31 -29 -12 -19 -25 -35 -29 -35 -4 0 -14 -11
-21 -25 -7 -14 -19 -25 -27 -25 -7 0 -13 -5 -13 -10 0 -6 -5 -16 -10 -23 -6
-7 -24 -27 -40 -46 -16 -19 -32 -43 -36 -53 -3 -10 -9 -16 -14 -13 -5 3 -16
-8 -25 -25 -8 -16 -20 -30 -25 -30 -6 0 -10 -4 -10 -10 0 -5 -10 -20 -23 -34
-59 -66 -67 -76 -60 -76 4 0 3 -4 -3 -8 -6 -4 -21 -23 -33 -42 -11 -19 -21
-30 -21 -25 0 6 -9 -4 -20 -22 -10 -18 -27 -41 -37 -52 -10 -10 -29 -35 -43
-55 -14 -20 -32 -46 -41 -57 -9 -11 -22 -33 -29 -49 -7 -16 -17 -27 -23 -23
-5 3 -7 1 -3 -5 3 -6 -5 -23 -19 -37 -13 -15 -27 -35 -30 -45 -3 -10 -12 -21
-20 -24 -8 -3 -15 -12 -15 -19 0 -8 -8 -23 -18 -35 -36 -42 -54 -69 -102 -157
-27 -50 -50 -85 -51 -80 0 6 -14 -17 -30 -50 -16 -33 -29 -55 -29 -50 0 6 -19
-24 -42 -65 -23 -41 -47 -80 -53 -86 -6 -7 -19 -33 -29 -58 -10 -25 -22 -46
-27 -46 -5 0 -8 -3 -7 -7 2 -5 -12 -37 -30 -72 -17 -35 -32 -60 -32 -55 0 5
-25 -43 -56 -106 -31 -63 -61 -118 -66 -121 -6 -4 -8 -11 -4 -17 3 -6 0 -17
-8 -24 -15 -15 -45 -82 -65 -145 -8 -24 -18 -40 -24 -36 -6 4 -8 0 -4 -10 3
-9 -2 -26 -12 -39 -17 -22 -63 -129 -63 -145 0 -4 -5 -17 -11 -28 -6 -11 -12
-22 -12 -25 -4 -23 -18 -50 -27 -50 -5 0 -8 -6 -5 -12 2 -7 -1 -24 -8 -38 -24
-48 -35 -75 -38 -95 -7 -42 -30 -104 -37 -100 -4 3 -7 -7 -7 -22 0 -15 -6 -29
-12 -31 -6 -2 -11 -11 -11 -21 0 -9 -4 -21 -9 -26 -6 -6 -12 -21 -14 -35 -2
-14 -11 -42 -21 -62 -9 -21 -16 -44 -16 -52 0 -8 -4 -18 -10 -21 -5 -3 -10
-14 -10 -24 0 -10 -12 -54 -26 -97 -14 -44 -28 -89 -30 -102 -3 -13 -11 -42
-19 -65 -8 -23 -17 -57 -20 -76 -3 -18 -12 -49 -20 -68 -8 -20 -15 -44 -15
-55 0 -10 -9 -45 -19 -76 -11 -32 -22 -69 -24 -83 -3 -13 -12 -51 -20 -84 -9
-33 -25 -107 -36 -165 -12 -58 -23 -116 -26 -130 -16 -76 -66 -392 -79 -500
-103 -809 -101 -1477 5 -2275 17 -128 57 -382 74 -465 3 -14 14 -72 26 -130
24 -123 52 -240 80 -328 10 -34 19 -69 19 -78 0 -8 9 -43 20 -77 23 -74 49
-164 54 -193 2 -11 16 -54 30 -95 14 -42 26 -85 26 -97 0 -11 4 -24 10 -27 5
-3 10 -13 10 -21 0 -8 7 -31 16 -52 10 -20 19 -48 21 -62 2 -14 8 -29 14 -34
5 -6 9 -18 9 -27 0 -10 5 -19 11 -21 6 -2 12 -16 12 -31 0 -15 3 -25 7 -22 7
4 30 -58 37 -100 3 -20 14 -47 38 -95 7 -14 10 -31 8 -37 -3 -7 0 -13 5 -13 9
0 23 -27 27 -50 0 -3 6 -14 12 -25 6 -11 11 -24 11 -28 0 -16 46 -123 63 -145
10 -13 15 -30 12 -39 -4 -10 -2 -14 4 -10 6 4 16 -12 24 -36 20 -63 50 -130
65 -145 8 -7 11 -18 8 -24 -4 -6 -2 -13 4 -17 5 -3 35 -58 66 -121 31 -63 56
-111 56 -106 0 5 15 -20 32 -55 18 -35 32 -67 30 -71 -1 -5 2 -8 7 -8 5 0 17
-21 27 -46 10 -25 23 -51 29 -58 6 -6 30 -45 53 -86 23 -41 42 -70 42 -65 0 6
13 -17 29 -50 16 -33 30 -55 30 -50 1 6 24 -30 51 -80 48 -88 66 -115 102
-157 10 -12 18 -27 18 -35 0 -7 7 -16 15 -19 8 -3 17 -14 20 -24 3 -10 17 -30
30 -45 14 -14 22 -31 19 -37 -4 -6 -2 -8 3 -5 6 4 16 -7 23 -23 7 -16 20 -38
29 -49 9 -11 27 -37 41 -57 14 -20 33 -45 43 -55 10 -11 27 -34 37 -52 11 -18
20 -27 20 -22 0 6 10 -6 21 -25 12 -19 27 -38 33 -42 6 -4 7 -8 3 -8 -7 0 1
-10 60 -76 13 -14 23 -29 23 -34 0 -6 4 -10 10 -10 5 0 17 -14 25 -30 9 -17
20 -28 25 -25 5 3 11 -3 14 -13 4 -10 20 -34 36 -53 16 -19 34 -39 40 -46 5
-7 10 -17 10 -23 0 -5 6 -10 13 -10 8 0 20 -11 27 -25 7 -14 17 -25 21 -25 4
0 17 -16 29 -35 12 -19 26 -33 31 -29 5 3 9 2 9 -3 0 -7 39 -55 90 -109 11
-12 20 -27 20 -32 0 -6 8 -13 18 -16 9 -3 33 -25 52 -47 48 -57 191 -199 201
-199 4 0 10 -9 14 -19 3 -11 17 -26 30 -35 14 -9 51 -43 84 -76 33 -33 62 -60
65 -60 3 0 24 -18 47 -40 23 -22 46 -40 51 -40 5 0 7 -4 4 -9 -3 -5 7 -17 22
-26 15 -10 34 -25 43 -34 9 -9 34 -31 55 -49 22 -18 54 -46 73 -62 19 -16 43
-32 53 -36 10 -3 16 -9 13 -14 -3 -5 8 -16 25 -25 16 -8 30 -20 30 -25 0 -6 4
-10 10 -10 5 0 22 -11 37 -25 64 -57 73 -64 73 -57 0 4 4 2 8 -4 4 -6 23 -21
42 -33 19 -11 31 -21 25 -21 -5 0 4 -9 22 -20 18 -10 41 -27 52 -37 10 -10 35
-29 55 -43 20 -14 46 -32 57 -41 11 -9 33 -22 49 -29 16 -7 27 -17 23 -23 -3
-5 -1 -7 5 -3 6 3 23 -5 37 -19 15 -13 36 -27 46 -30 11 -4 19 -10 19 -15 0
-5 8 -11 19 -15 10 -3 28 -13 39 -23 11 -9 29 -24 39 -32 10 -9 58 -37 106
-63 48 -27 87 -52 87 -56 0 -5 26 -20 58 -34 31 -15 53 -27 47 -27 -5 0 24
-19 65 -42 41 -23 80 -47 86 -53 7 -6 33 -19 58 -29 25 -10 46 -22 46 -27 0
-5 3 -8 8 -7 4 2 36 -12 71 -30 35 -17 60 -32 55 -32 -5 0 -1 -5 9 -11 9 -5
22 -7 27 -4 6 3 10 2 10 -3 0 -6 41 -29 90 -53 50 -24 90 -47 90 -51 0 -4 6
-5 13 -2 7 2 24 -4 37 -16 13 -11 28 -20 34 -20 24 0 146 -57 138 -65 -4 -4 1
-5 10 -2 9 3 27 -2 40 -12 23 -17 123 -61 139 -61 5 0 32 -11 61 -23 29 -13
58 -25 63 -26 6 -2 24 -10 40 -18 57 -30 65 -33 82 -33 18 0 105 -30 113 -39
3 -4 14 -8 25 -9 11 -2 22 -8 23 -13 2 -5 11 -9 21 -9 9 0 21 -4 27 -10 5 -5
22 -11 37 -12 15 -1 27 -6 27 -11 0 -5 7 -7 15 -3 8 3 15 1 15 -4 0 -4 15 -12
33 -15 17 -4 37 -10 42 -13 6 -4 19 -8 30 -10 11 -1 54 -14 95 -28 41 -15 86
-28 100 -30 14 -3 45 -11 70 -19 25 -7 81 -23 125 -35 44 -12 109 -30 145 -40
378 -107 919 -192 1525 -242 207 -17 897 -17 1105 0 332 27 649 65 905 108
153 26 434 83 493 101 31 9 64 17 72 19 8 1 49 11 90 22 41 12 102 28 135 37
33 9 80 23 105 30 25 8 54 16 65 18 11 2 27 7 35 10 8 3 62 20 120 37 58 18
141 45 186 61 44 16 85 29 91 29 6 0 13 4 15 9 2 5 12 11 23 13 11 1 22 5 25
9 8 9 95 39 113 39 9 0 25 4 35 9 9 5 31 14 47 21 17 7 39 17 50 23 32 17 207
87 218 87 5 0 20 9 34 20 14 11 29 17 34 14 5 -3 9 -1 9 3 0 5 17 15 38 22 20
8 66 28 102 45 36 17 68 30 72 29 3 -2 12 4 18 12 7 8 16 15 21 15 13 0 191
88 198 97 8 11 118 65 127 63 4 -1 10 3 13 8 3 5 24 18 46 29 68 34 189 104
200 117 6 6 34 22 62 35 29 14 51 27 48 29 -4 4 142 92 152 92 5 0 73 50 91
67 7 7 17 13 21 13 4 0 21 11 37 25 16 14 35 25 42 25 6 0 12 4 12 10 0 5 21
21 48 37 56 32 164 109 196 139 13 12 33 25 45 29 12 4 20 9 17 12 -5 5 32 33
127 98 20 14 37 30 37 35 0 6 5 10 10 10 5 0 18 8 29 19 10 10 23 20 28 22 6
2 14 14 17 27 l7 22 -947 0 -948 0 -45 -22 c-25 -12 -48 -25 -51 -29 -5 -7
-189 -93 -340 -159 -36 -15 -101 -44 -145 -63 -120 -53 -158 -68 -184 -73 -13
-3 -40 -13 -60 -23 -33 -17 -390 -138 -556 -189 -64 -20 -282 -77 -330 -87
-11 -2 -96 -19 -190 -39 -370 -77 -540 -103 -900 -138 -178 -18 -1052 -18
-1230 0 -228 22 -457 52 -570 73 -289 55 -425 81 -475 94 -30 8 -104 26 -165
41 -163 38 -656 195 -770 244 -28 12 -59 24 -71 26 -12 2 -70 26 -130 53 -60
26 -193 86 -296 131 -104 46 -188 86 -188 90 0 4 -6 7 -12 7 -7 1 -58 26 -113
57 -55 31 -106 56 -112 56 -7 0 -13 4 -13 9 0 4 -20 16 -45 25 -25 10 -45 22
-45 27 0 5 -6 9 -13 9 -7 0 -22 8 -33 18 -10 10 -44 32 -74 50 -220 131 -404
251 -477 312 -7 5 -17 10 -23 10 -5 0 -10 5 -10 10 0 6 -4 10 -9 10 -16 0
-151 97 -172 124 -11 14 -26 26 -34 26 -7 0 -15 4 -17 8 -1 5 -46 41 -98 82
-201 157 -353 293 -571 510 -241 241 -358 372 -509 570 -52 68 -110 139 -128
158 -17 19 -32 38 -32 43 0 5 -4 9 -10 9 -5 0 -10 7 -10 15 0 8 -4 15 -10 15
-5 0 -10 7 -10 15 0 8 -4 15 -10 15 -5 0 -10 6 -10 14 0 8 -7 16 -15 20 -8 3
-15 12 -15 21 0 8 -4 15 -10 15 -5 0 -10 6 -10 14 0 8 -7 17 -16 20 -9 4 -14
9 -11 12 3 3 -1 13 -8 22 -52 63 -153 217 -272 417 -26 44 -53 86 -60 93 -7 7
-13 17 -13 22 0 5 -6 15 -13 22 -7 7 -21 32 -31 56 -11 23 -22 42 -26 42 -3 0
-11 15 -18 33 -6 18 -30 63 -53 100 -37 62 -148 296 -204 427 -12 30 -31 73
-40 95 -43 96 -87 201 -90 215 -2 8 -11 33 -21 55 -20 47 -132 369 -140 403
-2 13 -11 40 -18 60 -77 209 -217 846 -260 1187 -40 306 -48 440 -53 838 -6
430 2 622 38 942 20 177 26 216 75 485 14 74 27 149 30 165 3 17 14 68 25 115
47 208 70 301 95 385 14 50 30 104 34 120 21 77 152 460 170 494 10 21 21 49
24 62 4 21 38 105 91 224 9 22 28 65 40 95 54 126 158 349 189 400 18 30 55
98 82 150 27 52 55 100 62 108 6 7 12 17 12 22 0 5 6 15 13 22 7 7 34 49 60
93 119 200 220 354 272 417 7 9 11 19 8 22 -3 3 2 8 11 12 9 3 16 12 16 20 0
8 5 14 10 14 6 0 10 7 10 15 0 9 7 18 15 21 8 4 15 12 15 20 0 8 5 14 10 14 6
0 10 7 10 15 0 8 5 15 10 15 6 0 10 7 10 15 0 8 5 15 10 15 6 0 10 4 10 9 0 5
15 24 32 43 18 19 76 90 128 158 151 198 268 329 509 570 225 224 396 376 586
520 55 41 113 89 130 105 35 35 161 125 175 125 6 0 10 5 10 10 0 6 5 10 10
10 6 0 16 5 23 10 73 61 257 181 477 312 30 18 64 40 74 50 11 10 26 18 33 18
7 0 13 4 13 9 0 5 20 17 45 27 25 9 45 21 45 25 0 5 6 9 13 9 6 0 57 25 112
56 55 31 106 56 113 57 6 0 12 3 12 7 0 4 84 44 188 90 103 45 236 105 296
131 60 27 118 51 130 53 12 2 43 14 71 26 116 50 608 206 770 245 61 14 135
32 165 40 48 12 106 24 190 39 14 3 59 11 100 19 207 41 309 58 460 77 351 42
417 45 910 45 494 0 560 -3 910 -46 173 -20 322 -46 605 -105 94 -20 179 -37
190 -39 48 -10 266 -67 330 -87 166 -51 523 -172 556 -189 20 -10 47 -20 60
-23 26 -5 64 -20 184 -73 44 -19 109 -48 145 -63 149 -65 331 -150 343 -160
12 -10 157 -89 247 -133 25 -12 47 -25 50 -28 3 -3 16 -12 29 -19 14 -7 30
-17 35 -22 12 -10 47 -32 241 -148 115 -69 209 -135 247 -172 10 -10 25 -18
33 -18 8 0 15 -4 15 -10 0 -5 7 -10 15 -10 8 0 15 -4 15 -10 0 -5 6 -10 14
-10 8 0 16 -7 20 -15 3 -8 12 -15 21 -15 8 0 15 -4 15 -10 0 -5 7 -10 15 -10
8 0 15 -4 15 -10 0 -5 6 -10 14 -10 7 0 33 -19 58 -42 24 -24 97 -83 161 -132
64 -49 136 -106 159 -127 23 -22 43 -39 46 -39 15 0 151 -134 145 -142 -3 -7
-1 -8 6 -4 6 4 14 0 17 -8 3 -9 9 -14 13 -11 4 2 39 -27 76 -65 l69 -70 714 0
713 0 -6 21 c-4 12 -16 30 -26 40 -10 10 -19 24 -19 29 0 6 -6 10 -14 10 -8 0
-17 8 -20 18 -4 10 -20 34 -36 53 -16 19 -44 51 -62 73 -18 21 -40 46 -49 55
-9 9 -24 28 -34 43 -9 15 -21 25 -26 22 -5 -3 -9 -1 -9 4 0 5 -18 28 -40 51
-22 23 -40 43 -40 45 0 2 -31 36 -70 75 -38 40 -70 76 -70 80 0 4 -11 14 -25
21 -14 7 -25 18 -26 24 0 6 -29 36 -64 66 -35 30 -64 60 -65 66 0 7 -12 20
-27 30 -16 10 -49 38 -74 63 -62 62 -157 145 -169 149 -6 2 -10 10 -10 18 0 8
-3 14 -7 14 -5 0 -22 13 -39 28 -17 15 -48 41 -69 57 -20 17 -53 44 -72 62
-19 18 -44 35 -54 38 -10 4 -19 12 -19 19 0 7 -11 18 -25 24 -14 6 -25 16 -25
22 0 5 -7 10 -15 10 -8 0 -15 4 -15 10 0 5 -17 21 -37 35 -95 65 -132 93 -127
98 3 3 -5 8 -17 12 -12 4 -32 17 -45 29 -32 30 -140 107 -196 139 -27 16 -48
32 -48 37 0 6 -6 10 -12 10 -7 0 -26 11 -42 25 -16 14 -33 25 -37 25 -4 0 -14
6 -21 13 -18 17 -86 67 -91 67 -10 0 -156 88 -152 92 3 2 -19 15 -48 29 -28
13 -56 29 -62 35 -11 13 -132 83 -200 117 -22 11 -43 24 -46 29 -3 5 -9 9 -13
8 -9 -2 -119 52 -127 63 -7 9 -185 97 -198 97 -5 0 -14 7 -21 15 -6 8 -15 14
-18 12 -4 -1 -36 12 -72 29 -36 17 -82 37 -102 45 -21 7 -38 17 -38 22 0 4 -4
6 -9 3 -5 -3 -20 3 -34 14 -14 11 -29 20 -34 20 -11 0 -186 70 -218 87 -11 6
-33 16 -50 23 -16 7 -38 16 -47 21 -10 5 -26 9 -35 9 -18 0 -105 30 -113 39
-3 4 -14 8 -25 9 -11 2 -22 7 -25 11 -4 5 -78 33 -100 37 -3 0 -22 8 -42 17
-21 10 -41 17 -45 17 -8 0 -194 56 -223 67 -8 3 -24 8 -35 10 -11 2 -40 10
-65 18 -25 7 -72 21 -105 30 -33 9 -91 25 -130 35 -192 52 -273 71 -415 99
-355 70 -683 114 -1130 152 -123 10 -817 20 -915 13z"/>
<path d="M6390 15542 c-8 -3 -57 -33 -110 -67 -52 -34 -126 -82 -165 -105 -38
-23 -95 -61 -125 -83 -30 -22 -110 -78 -177 -126 -130 -91 -350 -267 -523
-416 -199 -171 -603 -590 -701 -726 l-19 -27 778 -5 c1143 -8 3113 -40 3131
-51 5 -3 1 -38 -9 -78 -10 -40 -23 -98 -29 -128 -7 -30 -16 -71 -21 -90 -5
-19 -16 -69 -25 -110 -8 -41 -20 -91 -25 -110 -12 -47 -41 -170 -46 -195 -2
-11 -9 -40 -14 -65 -13 -51 -23 -95 -45 -195 -8 -38 -19 -88 -24 -110 -6 -22
-17 -73 -25 -113 -8 -40 -18 -78 -22 -84 -4 -6 -9 -23 -10 -37 -2 -14 -8 -45
-14 -68 -14 -60 -25 -107 -45 -193 -25 -110 -31 -136 -50 -225 -23 -108 -46
-203 -75 -315 -5 -19 -14 -60 -21 -90 -6 -30 -15 -73 -21 -95 -5 -22 -15 -69
-23 -105 -8 -36 -18 -83 -24 -105 -6 -22 -15 -59 -21 -82 -5 -24 -15 -62 -20
-85 -6 -24 -18 -74 -25 -113 -8 -38 -19 -88 -24 -110 -6 -22 -17 -74 -26 -115
-9 -41 -21 -91 -25 -110 -5 -19 -14 -57 -19 -84 -6 -26 -16 -67 -22 -89 -6
-23 -12 -49 -14 -58 -4 -21 -34 -146 -45 -189 -5 -19 -16 -69 -25 -110 -9 -41
-21 -97 -27 -125 -6 -27 -17 -75 -25 -105 -8 -30 -17 -66 -19 -80 -5 -29 -30
-138 -44 -190 -5 -19 -16 -69 -25 -110 -8 -41 -20 -91 -25 -110 -5 -19 -20
-87 -35 -150 -14 -63 -34 -151 -45 -195 -10 -44 -26 -114 -34 -155 -9 -41 -21
-91 -26 -110 -5 -19 -16 -69 -25 -110 -8 -41 -20 -91 -25 -110 -6 -19 -21 -84
-35 -145 -14 -60 -30 -130 -36 -155 -14 -59 -24 -108 -44 -205 -9 -44 -21 -90
-26 -103 -5 -13 -9 -25 -9 -27 0 -3 418 -5 929 -5 l929 0 36 152 c37 161 130
559 171 738 13 58 52 222 85 365 33 143 69 298 80 345 18 77 59 256 170 735
22 94 57 247 79 340 22 94 58 251 81 350 23 99 66 284 95 410 30 127 68 291
85 365 16 74 50 221 75 325 24 105 67 289 95 410 28 121 73 317 101 435 28
118 61 262 74 320 13 58 49 211 79 340 30 129 89 384 131 565 42 182 98 427
126 545 27 118 61 262 74 320 14 58 36 154 50 214 14 60 24 111 22 112 -4 4
-1205 24 -2937 49 -569 8 -1109 16 -1200 18 -91 2 -172 2 -180 -1z"/>
<path d="M21530 14319 c-655 -80 -1144 -450 -1329 -1006 -17 -48 -183 -754
-371 -1568 -187 -814 -343 -1486 -345 -1492 -3 -10 96 -13 474 -13 l478 0 117
513 c65 281 122 529 127 550 l10 37 404 0 c343 0 405 -2 405 -14 0 -14 -236
-1048 -245 -1074 -4 -10 93 -12 477 -10 l481 3 339 1465 c186 806 345 1510
354 1564 22 135 15 341 -16 446 -60 208 -203 377 -405 478 -81 40 -229 86
-345 107 -111 20 -490 29 -610 14z m195 -720 c78 -14 125 -39 168 -90 45 -53
62 -118 53 -216 -3 -41 -64 -328 -136 -638 -71 -310 -130 -566 -130 -569 0 -3
-185 -6 -411 -6 -386 0 -410 1 -405 18 3 9 62 264 131 565 129 557 156 658
199 731 33 57 112 129 177 162 92 46 240 64 354 43z"/>
<path d="M11722 14254 c-246 -35 -436 -121 -582 -260 -120 -115 -202 -250
-265 -437 -39 -118 -583 -2487 -600 -2615 -19 -141 -19 -200 0 -280 36 -151
119 -256 260 -328 93 -47 166 -69 285 -84 91 -11 1166 -14 1266 -4 l59 7 248
368 248 369 -645 0 c-571 0 -650 2 -686 16 -70 28 -70 28 52 561 l83 363 475
0 475 1 248 369 248 370 -636 0 c-349 0 -635 4 -635 9 0 22 162 701 176 739
22 58 65 88 144 101 38 7 244 11 501 11 l436 0 246 370 247 370 -777 -1 c-598
-1 -800 -4 -871 -15z"/>
<path d="M13422 12263 c-254 -1105 -462 -2011 -462 -2015 0 -5 213 -8 474 -8
l474 0 10 43 c6 23 77 328 157 677 80 349 149 646 152 659 l6 23 331 -4 c373
-4 384 -6 406 -73 17 -53 0 -139 -209 -1017 -39 -163 -71 -299 -71 -302 0 -3
215 -6 478 -6 l478 0 139 598 c155 669 163 721 126 839 -25 82 -87 181 -145
227 -23 19 -77 52 -120 72 l-77 37 82 44 c115 61 165 100 267 208 89 94 143
179 176 277 29 88 218 923 232 1028 17 132 17 188 0 272 -33 153 -123 266
-269 338 -92 45 -164 65 -281 80 -49 6 -437 10 -986 10 l-906 0 -462 -2007z
m1870 1248 c42 -21 53 -60 39 -142 -18 -109 -177 -789 -200 -854 -23 -64 -42
-89 -86 -113 -25 -14 -77 -17 -338 -20 -254 -3 -306 -2 -303 10 3 7 62 261
131 563 70 303 128 556 131 563 6 20 586 12 626 -7z"/>
<path d="M16742 12263 c-254 -1105 -462 -2011 -462 -2015 0 -5 213 -8 474 -8
l474 0 10 43 c6 23 77 328 157 677 80 349 149 646 152 659 l6 23 331 -4 c373
-4 384 -6 406 -73 17 -53 0 -139 -209 -1017 -39 -163 -71 -299 -71 -302 0 -3
215 -6 478 -6 l478 0 139 598 c155 669 163 721 126 839 -25 82 -87 181 -145
227 -23 19 -77 52 -120 72 l-77 37 82 44 c115 61 165 100 267 208 89 94 143
179 176 277 29 88 218 923 232 1028 17 132 17 188 0 272 -33 153 -123 266
-269 338 -92 45 -164 65 -281 80 -49 6 -437 10 -986 10 l-906 0 -462 -2007z
m1870 1248 c42 -21 53 -60 39 -142 -18 -109 -177 -789 -200 -854 -23 -64 -42
-89 -86 -113 -25 -14 -77 -17 -338 -20 -254 -3 -306 -2 -303 10 3 7 62 261
131 563 70 303 128 556 131 563 6 20 586 12 626 -7z"/>
<path d="M25465 12678 c-198 -270 -361 -495 -363 -500 -2 -4 159 -8 357 -8
236 0 361 -3 361 -10 0 -6 -216 -819 -479 -1808 -264 -988 -483 -1809 -486
-1824 l-7 -28 550 0 549 0 16 58 c21 74 1213 4548 1222 4585 l7 27 -683 0
-684 0 -360 -492z"/>
<path d="M28009 12753 c-162 -229 -295 -420 -297 -425 -2 -4 417 -9 931 -10
l936 -3 -1074 -1905 -1074 -1905 546 -3 c430 -2 550 1 559 10 12 14 2610 4617
2620 4643 5 13 -163 15 -1423 15 l-1430 0 -294 -417z"/>
<path d="M23635 12608 c-11 -33 -185 -695 -185 -705 0 -9 49 -13 194 -15 l194
-3 -147 -255 c-81 -141 -164 -286 -185 -323 l-38 -67 220 0 220 0 40 68 c57
95 265 391 391 555 l106 138 82 307 c45 169 83 308 83 310 0 1 -218 2 -485 2
-380 0 -487 -3 -490 -12z"/>
<path d="M9781 9593 c-6 -21 -11 -46 -11 -56 0 -10 -6 -46 -14 -80 -8 -34 -24
-107 -36 -162 -43 -205 -63 -292 -80 -355 -10 -36 -28 -112 -40 -170 -12 -58
-28 -134 -35 -170 -36 -171 -69 -312 -90 -385 -13 -44 -30 -116 -39 -160 -27
-133 -105 -485 -126 -565 -11 -41 -38 -158 -59 -260 -72 -337 -111 -515 -122
-545 -5 -16 -37 -158 -70 -315 -55 -262 -92 -422 -107 -460 -3 -8 -7 -24 -8
-35 -3 -19 -65 -319 -119 -574 -15 -69 -31 -136 -36 -150 -6 -14 -30 -120 -54
-235 -54 -262 -102 -474 -109 -485 -3 -5 -31 -131 -61 -281 -31 -149 -65 -306
-76 -347 -10 -42 -19 -85 -19 -95 0 -11 -3 -17 -7 -15 -5 3 -9 -7 -10 -21 -3
-45 -42 -214 -63 -269 -11 -29 -18 -53 -16 -53 3 0 -4 -24 -14 -52 -15 -45
-28 -113 -32 -165 -1 -7 -5 -13 -9 -13 -4 0 -7 -10 -7 -22 0 -32 -18 -105 -37
-158 -9 -25 -18 -54 -19 -65 -1 -11 -8 -36 -14 -56 -7 -20 -12 -41 -11 -45 1
-5 0 -11 -1 -14 -1 -3 -4 -18 -6 -35 -3 -16 -9 -32 -14 -35 -4 -3 -8 -16 -9
-30 0 -14 -2 -45 -3 -70 l-3 -45 70 -17 c414 -103 765 -166 1140 -203 150 -14
605 -39 609 -33 2 2 24 118 51 258 27 140 54 262 60 270 13 17 51 152 60 215
4 22 11 58 17 80 11 42 35 156 45 215 3 19 10 40 15 47 5 7 7 16 4 21 -3 5 2
33 10 63 9 30 18 72 20 94 2 21 9 44 14 49 6 6 10 22 10 37 0 15 5 31 10 34 6
3 10 21 10 40 0 19 5 37 11 40 6 4 8 13 5 20 -2 7 2 31 10 54 8 24 12 46 9 51
-3 5 -1 12 5 15 6 4 8 15 5 24 -3 10 2 35 10 56 9 20 14 43 11 51 -3 7 -1 16
4 19 6 4 10 21 10 40 0 19 4 36 9 39 4 3 11 27 15 53 13 83 13 88 19 103 3 8
8 29 12 45 3 17 10 48 16 70 6 22 13 54 16 70 3 17 10 35 15 42 5 6 8 20 7 30
-1 10 1 25 4 33 4 8 8 29 10 45 2 17 6 37 10 45 3 8 10 42 16 75 5 33 17 89
26 125 29 118 54 224 60 265 4 22 11 45 16 51 5 6 16 49 25 95 37 200 43 229
55 270 7 24 12 50 10 56 -1 7 6 36 15 65 9 29 20 73 25 98 22 109 38 172 50
186 5 6 7 18 4 26 -3 8 1 30 9 50 9 20 17 59 20 87 2 27 9 58 14 67 5 9 7 25
5 34 -3 10 0 21 6 24 6 4 11 19 11 34 0 15 7 52 16 82 9 30 17 67 18 83 2 15
6 30 9 34 4 3 7 21 7 39 0 18 5 36 10 39 6 3 10 19 10 34 0 15 9 54 19 87 11
32 24 86 29 119 6 33 18 92 27 130 29 127 36 159 49 230 7 39 18 83 25 98 6
16 11 39 11 52 0 12 11 60 24 106 21 78 34 130 73 314 8 39 18 88 23 110 5 22
14 65 21 95 6 30 14 62 16 70 3 8 7 32 8 54 2 21 7 42 12 47 5 5 1136 10 2577
11 l2568 3 -36 45 c-20 25 -36 48 -36 53 0 4 -26 42 -57 85 -78 106 -215 292
-282 382 -31 41 -61 84 -68 97 -6 12 -37 58 -69 100 -120 162 -134 182 -134
189 0 4 -22 37 -50 74 -27 37 -50 72 -50 79 0 6 -43 70 -96 143 -53 73 -99
140 -102 148 -3 8 -24 41 -46 73 l-40 57 -2807 0 -2808 0 -10 -37z"/>
<path d="M21845 7415 c-383 -51 -824 -175 -1117 -312 l-97 -45 -10 -47 c-5
-25 -195 -847 -421 -1826 -226 -979 -414 -1795 -417 -1812 l-6 -33 479 0 479
0 365 1580 c354 1535 365 1580 389 1590 144 58 415 88 524 56 108 -31 162
-113 160 -241 0 -41 -106 -515 -332 -1495 -183 -789 -335 -1447 -338 -1462
l-5 -28 481 0 c264 0 481 3 481 6 0 3 157 688 350 1522 192 834 357 1564 365
1622 55 388 -40 659 -278 799 -74 44 -224 94 -347 116 -127 24 -560 30 -705
10z"/>
<path d="M29410 7415 c-645 -89 -1121 -470 -1295 -1038 -14 -45 -176 -736
-360 -1535 -184 -799 -337 -1463 -341 -1477 l-6 -25 481 0 481 0 5 23 c17 69
245 1062 245 1064 0 2 182 3 405 3 l405 0 -5 -22 c-17 -70 -245 -1063 -245
-1065 0 -2 217 -3 483 -3 l482 0 315 1363 c405 1755 378 1635 391 1758 30 302
-67 568 -268 734 -136 112 -356 196 -588 224 -120 15 -467 12 -585 -4z m339
-750 c105 -58 142 -149 121 -298 -6 -45 -68 -329 -138 -632 l-127 -550 -403
-3 c-323 -2 -402 0 -402 11 0 32 261 1140 284 1201 44 121 116 205 226 261 69
36 122 44 255 42 124 -2 133 -4 184 -32z"/>
<path d="M12467 7359 c-444 -65 -713 -284 -854 -694 -31 -93 -579 -2467 -599
-2598 -23 -148 -15 -290 22 -387 23 -63 39 -87 98 -146 82 -83 172 -133 299
-166 80 -21 101 -22 767 -25 l685 -3 247 372 248 373 -653 5 c-485 4 -659 8
-680 17 -61 28 -58 58 61 573 l78 335 475 3 474 3 247 372 248 372 -636 3
c-599 2 -635 3 -630 20 3 9 37 157 76 327 39 171 78 334 86 363 20 67 61 115
112 130 28 9 179 12 508 12 l469 1 230 345 c127 191 238 359 248 375 l19 29
-794 -1 c-436 -1 -819 -5 -851 -10z"/>
<path d="M15275 7359 c-108 -16 -219 -50 -313 -96 -257 -125 -407 -311 -501
-618 -41 -135 -577 -2464 -596 -2590 -34 -230 -7 -380 91 -502 46 -56 167
-136 248 -163 141 -47 198 -50 892 -50 l651 0 241 363 242 362 -653 5 c-628 5
-654 6 -687 25 -44 26 -51 56 -34 152 13 79 451 1985 499 2175 32 125 55 164
109 189 38 17 75 19 528 19 l488 0 238 358 c131 196 242 363 246 370 6 9 -159
12 -811 11 -450 -1 -845 -5 -878 -10z"/>
<path d="M17396 7353 c-3 -10 -210 -909 -461 -1998 -251 -1089 -459 -1988
-461 -1997 -5 -17 22 -18 475 -18 l481 0 5 23 c3 12 90 389 194 837 l188 815
406 3 c324 2 406 0 402 -10 -2 -7 -88 -377 -190 -823 -103 -445 -189 -818
-191 -827 -5 -17 22 -18 478 -18 l484 0 459 1988 c252 1093 461 1999 463 2015
l4 27 -480 0 c-449 0 -481 -1 -486 -17 -3 -10 -84 -362 -181 -783 -97 -421
-178 -773 -181 -782 -5 -17 -33 -18 -410 -18 -381 0 -405 1 -400 18 3 9 84
359 181 777 96 418 177 770 180 783 l5 22 -479 0 c-448 0 -480 -1 -485 -17z"/>
<path d="M23971 7278 c-12 -51 -221 -957 -465 -2013 l-443 -1920 480 -3 c264
-1 482 -1 483 1 3 2 845 3643 923 3990 l9 37 -483 0 -483 0 -21 -92z"/>
<path d="M26227 7359 c-215 -31 -407 -122 -551 -258 -125 -120 -203 -255 -265
-456 -41 -135 -577 -2464 -596 -2590 -34 -230 -7 -380 91 -502 44 -53 159
-130 241 -160 136 -49 198 -53 899 -53 l651 0 241 363 242 362 -653 6 c-417 4
-661 10 -677 16 -54 22 -63 55 -44 160 16 93 496 2175 518 2246 21 68 42 96
89 118 39 17 73 19 529 19 l488 0 238 358 c131 196 242 363 246 370 6 9 -159
12 -811 11 -450 -1 -844 -5 -876 -10z"/>
</g>
</svg>
